<svg width="52" height="52" viewBox="0 0 52 52" fill="none" xmlns="http://www.w3.org/2000/svg">
<path d="M38 48C39.1046 48 40 48.8954 40 50C40 51.1046 39.1046 52 38 52C36.8954 52 36 51.1046 36 50C36 48.8954 36.8954 48 38 48Z" fill="#2E2E2E"/>
<path d="M50 48C51.1046 48 52 48.8954 52 50C52 51.1046 51.1046 52 50 52C48.8954 52 48 51.1046 48 50C48 48.8954 48.8954 48 50 48Z" fill="#2E2E2E"/>
<path d="M14 24C15.1046 24 16 24.8954 16 26C16 27.1046 15.1046 28 14 28C12.8954 28 12 27.1046 12 26C12 24.8954 12.8954 24 14 24Z" fill="#2E2E2E"/>
<path d="M26 24C27.1046 24 28 24.8954 28 26C28 27.1046 27.1046 28 26 28C24.8954 28 24 27.1046 24 26C24 24.8954 24.8954 24 26 24Z" fill="#2E2E2E"/>
<path d="M38 24C39.1046 24 40 24.8954 40 26C40 27.1046 39.1046 28 38 28C36.8954 28 36 27.1046 36 26C36 24.8954 36.8954 24 38 24Z" fill="#2E2E2E"/>
<path d="M50 24C51.1046 24 52 24.8954 52 26C52 27.1046 51.1046 28 50 28C48.8954 28 48 27.1046 48 26C48 24.8954 48.8954 24 50 24Z" fill="#2E2E2E"/>
<path d="M14 36C15.1046 36 16 36.8954 16 38C16 39.1046 15.1046 40 14 40C12.8954 40 12 39.1046 12 38C12 36.8954 12.8954 36 14 36Z" fill="#2E2E2E"/>
<path d="M26 36C27.1046 36 28 36.8954 28 38C28 39.1046 27.1046 40 26 40C24.8954 40 24 39.1046 24 38C24 36.8954 24.8954 36 26 36Z" fill="#2E2E2E"/>
<path d="M38 36C39.1046 36 40 36.8954 40 38C40 39.1046 39.1046 40 38 40C36.8954 40 36 39.1046 36 38C36 36.8954 36.8954 36 38 36Z" fill="#2E2E2E"/>
<path d="M50 36C51.1046 36 52 36.8954 52 38C52 39.1046 51.1046 40 50 40C48.8954 40 48 39.1046 48 38C48 36.8954 48.8954 36 50 36Z" fill="#2E2E2E"/>
<path d="M2 12C3.10457 12 4 12.8954 4 14C4 15.1046 3.10457 16 2 16C0.895429 16 -1.61275e-06 15.1046 -1.66103e-06 14C-1.70931e-06 12.8954 0.895429 12 2 12Z" fill="#2E2E2E"/>
<path d="M14 12C15.1046 12 16 12.8954 16 14C16 15.1046 15.1046 16 14 16C12.8954 16 12 15.1046 12 14C12 12.8954 12.8954 12 14 12Z" fill="#2E2E2E"/>
<path d="M26 12C27.1046 12 28 12.8954 28 14C28 15.1046 27.1046 16 26 16C24.8954 16 24 15.1046 24 14C24 12.8954 24.8954 12 26 12Z" fill="#2E2E2E"/>
<path d="M38 12C39.1046 12 40 12.8954 40 14C40 15.1046 39.1046 16 38 16C36.8954 16 36 15.1046 36 14C36 12.8954 36.8954 12 38 12Z" fill="#2E2E2E"/>
<path d="M50 12C51.1046 12 52 12.8954 52 14C52 15.1046 51.1046 16 50 16C48.8954 16 48 15.1046 48 14C48 12.8954 48.8954 12 50 12Z" fill="#2E2E2E"/>
<path d="M2 -8.74228e-08C3.10457 -1.35705e-07 4 0.895431 4 2C4 3.10457 3.10457 4 2 4C0.895428 4 -2.13729e-06 3.10457 -2.18557e-06 2C-2.23385e-06 0.895432 0.895428 -3.91405e-08 2 -8.74228e-08Z" fill="#2E2E2E"/>
<path d="M14 -6.11959e-07C15.1046 -6.60242e-07 16 0.895431 16 2C16 3.10457 15.1046 4 14 4C12.8954 4 12 3.10457 12 2C12 0.895431 12.8954 -5.63677e-07 14 -6.11959e-07Z" fill="#2E2E2E"/>
<path d="M26 -1.1365e-06C27.1046 -1.18478e-06 28 0.89543 28 2C28 3.10457 27.1046 4 26 4C24.8954 4 24 3.10457 24 2C24 0.89543 24.8954 -1.08821e-06 26 -1.1365e-06Z" fill="#2E2E2E"/>
<path d="M38 -1.66103e-06C39.1046 -1.70931e-06 40 0.89543 40 2C40 3.10457 39.1046 4 38 4C36.8954 4 36 3.10457 36 2C36 0.89543 36.8954 -1.61275e-06 38 -1.66103e-06Z" fill="#2E2E2E"/>
<path d="M50 -2.18557e-06C51.1046 -2.23385e-06 52 0.895429 52 2C52 3.10457 51.1046 4 50 4C48.8954 4 48 3.10457 48 2C48 0.895429 48.8954 -2.13729e-06 50 -2.18557e-06Z" fill="#2E2E2E"/>
</svg>
